<?xml version="1.0" encoding="UTF-8"?>
<svg width="153px" height="35px" viewBox="0 0 153 35" version="1.1" xmlns="http://www.w3.org/2000/svg" xmlns:xlink="http://www.w3.org/1999/xlink">
    <!-- Generator: Sketch 47.1 (45422) - http://www.bohemiancoding.com/sketch -->
    <title>Group 2</title>
    <desc>Created with Sketch.</desc>
    <defs></defs>
    <g id="Symbols" stroke="none" stroke-width="1" fill="none" fill-rule="evenodd">
        <g id="topnavigation---for-testing" transform="translate(-15.000000, -87.000000)">
            <g id="topnavigation-copy" transform="translate(0.000000, 80.000000)">
                <g id="topnavigation---not-loggedin">
                    <g id="logo-wht2-copy" transform="translate(15.000000, 6.000000)">
                        <g id="Group-2" transform="translate(0.000000, 1.000000)">
                            <g id="Wynk-Logo(1)-Copy-2">
                                <path d="M18,3.00715055 L18,4.15475133 C13.3915251,4.24781179 9.40413538,5.85471379 6.14176512,9.11548289 C2.87783064,12.3779045 1.27788661,16.3708072 1.16439322,21 L0.00182457859,21 C-0.145821117,10.8277085 8.69058693,2.72501209 18,3.00715055" id="Fill-1" fill="#FFFFFF"></path>
                                <path d="M18.5000436,7 C10.4918405,7 4,13.268068 4,21.0000421 C4,28.7320161 10.4918405,35 18.5000436,35 C26.5081595,35 33,28.7320161 33,21.0000421 C33,13.268068 26.5081595,7 18.5000436,7 L18.5000436,7 Z M18.5000436,8.00924238 C22.0939136,8.00924238 25.4726288,9.36053382 28.0138951,11.8141702 C30.5551614,14.2678067 31.9547133,17.5300986 31.9547133,21.0000421 C31.9547133,24.4699856 30.5551614,27.7322774 28.0138951,30.1859139 C25.4726288,32.6395503 22.0939136,33.9907576 18.5000436,33.9907576 C14.9060864,33.9907576 11.5273712,32.6395503 8.9861049,30.1859139 C6.4448386,27.7322774 5.04528675,24.4699856 5.04528675,21.0000421 C5.04528675,17.5300986 6.4448386,14.2678067 8.9861049,11.8141702 C11.5273712,9.36053382 14.9060864,8.00924238 18.5000436,8.00924238 L18.5000436,8.00924238 Z" id="Fill-3" fill="#FFFFFF"></path>
                                <path d="M17.5000437,11 C11.7010054,11 7,15.4771667 7,21 C7,26.5228333 11.7010054,31 17.5000437,31 C23.2989946,31 28,26.5228333 28,21 C28,15.4771667 23.2989946,11 17.5000437,11 L17.5000437,11 Z M17.5000437,12 C20.0241457,12 22.3973108,12.9361667 24.1821284,14.636 C25.9670335,16.3359167 26.9500044,18.596 26.9500044,21 C26.9500044,23.404 25.9670335,25.6640833 24.1821284,27.3639167 C22.3973108,29.0638333 20.0241457,30 17.5000437,30 C14.9758543,30 12.6027767,29.0638333 10.8178716,27.3639167 C9.03296653,25.6640833 8.04999563,23.404 8.04999563,21 C8.04999563,18.596 9.03296653,16.3359167 10.8178716,14.636 C12.6027767,12.9361667 14.9758543,12 17.5000437,12 L17.5000437,12 Z" id="Fill-4" fill="#FFFFFF"></path>
                                <g id="Group-8">
                                    <polygon id="Clip-6" points="21.8317928 0.0671829268 0 0.0671829268 0 35 32.9258359 35 32.9258359 0.0671829268 21.8317928 0.0671829268 10.7377497 0.0671829268 10.7377497 25.3092893 32.9258432 25.3092893 32.9258432 0.0671829268 21.8317928 0.0671829268"></polygon>
                                    <path d="M17.8042734,13.7071098 L17.8042734,14.863561 C16.1798828,14.9080366 14.7752344,15.470939 13.6344141,16.6047683 C12.4942813,17.7378293 11.9224531,19.1286098 11.881375,20.7532073 L10.7612656,20.7532073 C10.4425234,17.6973659 13.3937891,13.6415488 17.8042734,13.7071098" id="Fill-5" fill="#FFFFFF"></path>
                                    <path d="M22.2040156,17.982061 C22.8873047,11.9660732 23.5619141,6.0267439 24.2388438,0.0671829268 C24.8764141,0.135987805 25.4861406,0.195487805 26.0932031,0.274536585 C26.1806875,0.285890244 26.3139766,0.380987805 26.3276406,0.455256098 C26.4984844,1.38335366 27.1344219,1.97852439 27.8392813,2.50019512 C28.6984844,3.136 29.6260938,3.68345122 30.4626094,4.34563415 C31.0272188,4.79260976 31.5473984,5.32606098 31.9798359,5.90065854 C33.2866016,7.637 33.2318594,9.13056098 31.8633047,10.8254146 C31.6769063,11.0563293 31.4578516,11.2678659 31.2253047,11.452939 C31.0829922,11.5662195 30.8860234,11.6118902 30.6341406,11.7229512 C30.8514766,11.0954268 31.0679531,10.5877561 31.2023594,10.0595122 C31.5391484,8.73617073 31.4972109,7.46114634 30.3626641,6.49796341 C29.9274766,6.1285 29.3940625,5.80726829 28.8505938,5.64421951 C27.8885234,5.35542683 26.8845156,5.2045 25.8261094,4.98067073 C25.7615703,5.4637561 25.7076875,5.82178049 25.6666953,6.18134146 C25.2854766,9.52742683 24.9058906,12.8735976 24.5269922,16.219939 C24.332,17.9421951 24.1184453,19.6627439 23.9521563,21.3877317 C23.8112188,22.8497927 23.035375,23.8572805 21.7975313,24.5712805 C19.5247422,25.8822439 16.1381172,25.4005244 14.3503594,23.4924268 C12.4868047,21.5034024 12.9385781,18.8677317 15.2136875,17.5601829 C17.3696875,16.3210976 19.5599766,16.4711707 21.7033438,17.6685122 C21.8500391,17.7504634 21.9886563,17.8465854 22.2040156,17.982061" id="Fill-7" fill="#FFFFFF"></path>
                                </g>
                            </g>
                            <path d="M41.44,12.646 C41.3519996,12.2939982 41.308,12.0153344 41.308,11.81 C41.308,11.4286648 41.4436653,11.1280011 41.715,10.908 C41.9863347,10.6879989 42.3566643,10.578 42.826,10.578 C43.2806689,10.578 43.606999,10.6659991 43.805,10.842 C44.003001,11.0180009 44.1386663,11.274665 44.212,11.612 L46.544,22.304 L48.832,11.722 C48.9346672,11.2526643 49.1399985,10.9446674 49.448,10.798 C49.7560015,10.6513326 50.0859982,10.578 50.438,10.578 C50.7900018,10.578 51.1016653,10.6586659 51.373,10.82 C51.6443347,10.9813341 51.8386661,11.2966643 51.956,11.766 L54.288,22.304 L56.664,11.546 C56.8106674,10.9006634 57.2286632,10.578 57.918,10.578 C58.3873357,10.578 58.7466654,10.6989988 58.996,10.941 C59.2453346,11.1830012 59.37,11.4799982 59.37,11.832 C59.37,12.0813346 59.3260004,12.3673317 59.238,12.69 L55.96,25.076 C55.8426661,25.472002 55.6300015,25.7506659 55.322,25.912 C55.0139985,26.0733341 54.662002,26.154 54.266,26.154 C53.7526641,26.154 53.3530014,26.0513344 53.067,25.846 C52.7809986,25.6406656 52.6013337,25.3546685 52.528,24.988 L50.35,15.33 L48.15,25.054 C48.0619996,25.4646687 47.8640015,25.7506659 47.556,25.912 C47.2479985,26.0733341 46.8886687,26.154 46.478,26.154 C45.9646641,26.154 45.5723347,26.0476677 45.301,25.835 C45.0296653,25.6223323 44.8426672,25.3326685 44.74,24.966 L41.44,12.646 Z M63.506,25.34 L60.03,16.606 C59.9419996,16.3859989 59.8906667,16.2100007 59.876,16.078 C59.8613333,15.9459993 59.854,15.8286672 59.854,15.726 C59.854,15.3446648 59.9859987,15.0440011 60.25,14.824 C60.5140013,14.6039989 60.8806643,14.494 61.35,14.494 C61.746002,14.494 62.042999,14.5783325 62.241,14.747 C62.439001,14.9156675 62.5893328,15.1466652 62.692,15.44 L64.958,21.974 L67.356,15.462 C67.4733339,15.124665 67.6236658,14.8790008 67.807,14.725 C67.9903343,14.5709992 68.2579982,14.494 68.61,14.494 C69.0793357,14.494 69.4313322,14.6149988 69.666,14.857 C69.9006678,15.0990012 70.018,15.3959982 70.018,15.748 C70.018,15.8653339 70.0070001,16.0009992 69.985,16.155 C69.9629999,16.3090008 69.9153337,16.4666659 69.842,16.628 L64.672,29.542 C64.5106659,29.9233352 64.3163345,30.2239989 64.089,30.444 C63.8616655,30.6640011 63.579335,30.774 63.242,30.774 C62.8019978,30.774 62.4683345,30.645668 62.241,30.389 C62.0136655,30.1323321 61.9,29.8500015 61.9,29.542 C61.9,29.3659991 61.929333,29.179001 61.988,28.981 C62.046667,28.782999 62.1126663,28.6106674 62.186,28.464 L63.506,25.34 Z M71.448,15.836 C71.448,15.439998 71.5506656,15.1173346 71.756,14.868 C71.9613344,14.6186654 72.3133308,14.494 72.812,14.494 C73.1640018,14.494 73.4719987,14.563666 73.736,14.703 C74.0000013,14.842334 74.132,15.1686641 74.132,15.682 L74.132,15.946 C74.4106681,15.4913311 74.8103307,15.0990017 75.331,14.769 C75.8516693,14.4389984 76.4639965,14.274 77.168,14.274 C78.5173401,14.274 79.4926637,14.7286621 80.094,15.638 C80.4166683,16.1366692 80.6109997,16.6976636 80.677,17.321 C80.7430003,17.9443365 80.776,18.5273306 80.776,19.07 L80.776,24.944 C80.776,25.3693355 80.6660011,25.6773324 80.446,25.868 C80.2259989,26.0586676 79.8813357,26.154 79.412,26.154 C79.015998,26.154 78.689668,26.0623343 78.433,25.879 C78.176332,25.6956658 78.048,25.3840022 78.048,24.944 L78.048,19.026 C78.048,18.3953302 77.9893339,17.9260015 77.872,17.618 C77.7546661,17.3246652 77.5713346,17.1193339 77.322,17.002 C77.0726654,16.8846661 76.779335,16.826 76.442,16.826 C76.0899982,16.826 75.7856679,16.8846661 75.529,17.002 C75.272332,17.1193339 75.0596675,17.2659991 74.891,17.442 C74.7223325,17.6180009 74.5903338,17.8086656 74.495,18.014 C74.3996662,18.2193344 74.3373335,18.4099991 74.308,18.586 C74.249333,18.8500013 74.2163334,19.150665 74.209,19.488 C74.2016666,19.825335 74.198,20.1113322 74.198,20.346 L74.198,24.878 C74.198,25.3326689 74.0916677,25.658999 73.879,25.857 C73.6663323,26.055001 73.3033359,26.154 72.79,26.154 C72.3793313,26.154 72.0530012,26.0586676 71.811,25.868 C71.5689988,25.6773324 71.448,25.3620022 71.448,24.922 L71.448,15.836 Z M83.328,11.964 C83.328,11.5386645 83.4453322,11.2013346 83.68,10.952 C83.9146678,10.7026654 84.2739976,10.578 84.758,10.578 C85.095335,10.578 85.3996653,10.6806656 85.671,10.886 C85.9423347,11.0913344 86.078,11.4066645 86.078,11.832 L86.078,18.454 L89.07,15.352 C89.3340013,15.0733319 89.564999,14.8606674 89.763,14.714 C89.961001,14.5673326 90.2066652,14.494 90.5,14.494 C90.7053344,14.494 90.8886659,14.5416662 91.05,14.637 C91.2113341,14.7323338 91.3506661,14.8459993 91.468,14.978 C91.5706672,15.0953339 91.651333,15.2163327 91.71,15.341 C91.768667,15.4656673 91.798,15.6233324 91.798,15.814 C91.798,15.9753341 91.7540004,16.1329992 91.666,16.287 C91.5779996,16.4410008 91.4606674,16.5986659 91.314,16.76 L89.07,19.048 L92.062,24.152 C92.1353337,24.2840007 92.1976664,24.419666 92.249,24.559 C92.3003336,24.698334 92.326,24.8266661 92.326,24.944 C92.326,25.281335 92.1976679,25.5673322 91.941,25.802 C91.684332,26.0366678 91.3433355,26.154 90.918,26.154 C90.5513315,26.154 90.2543345,26.0440011 90.027,25.824 C89.7996655,25.6039989 89.5833344,25.3033352 89.378,24.922 L87.068,20.874 L86.078,21.886 L86.078,24.922 C86.078,25.3620022 85.9606678,25.6773324 85.726,25.868 C85.4913322,26.0586676 85.1613355,26.154 84.736,26.154 C83.7973286,26.154 83.328,25.758004 83.328,24.966 L83.328,11.964 Z M101.39,24.922 C101.39,25.259335 101.294668,25.5489988 101.104,25.791 C100.913332,26.0330012 100.561336,26.154 100.048,26.154 C99.5639976,26.154 99.2266676,26.0513344 99.036,25.846 C98.8453324,25.6406656 98.75,25.3106689 98.75,24.856 L98.75,12.096 C98.75,11.5533306 98.9003318,11.1646678 99.201,10.93 C99.5016682,10.6953322 99.9599969,10.578 100.576,10.578 C101.221337,10.578 101.686999,10.6989988 101.973,10.941 C102.259001,11.1830012 102.467999,11.5239978 102.6,11.964 L106.01,22.854 L109.222,12.052 C109.383334,11.5239974 109.628998,11.1463345 109.959,10.919 C110.289002,10.6916655 110.776663,10.578 111.422,10.578 C112.038003,10.578 112.488999,10.6916655 112.775,10.919 C113.061001,11.1463345 113.204,11.4946643 113.204,11.964 L113.204,24.922 C113.204,25.259335 113.105001,25.5489988 112.907,25.791 C112.708999,26.0330012 112.353336,26.154 111.84,26.154 C111.370664,26.154 111.037001,26.0513344 110.839,25.846 C110.640999,25.6406656 110.542,25.3253355 110.542,24.9 L110.542,15.33 L107.44,24.922 C107.322666,25.3033352 107.132001,25.5856658 106.868,25.769 C106.603999,25.9523343 106.303335,26.044 105.966,26.044 C105.496664,26.044 105.137335,25.9376677 104.888,25.725 C104.638665,25.5123323 104.455334,25.2153352 104.338,24.834 L101.39,15.572 L101.39,24.922 Z M115.91,15.704 C115.91,15.2786645 116.019999,14.9706676 116.24,14.78 C116.460001,14.5893324 116.804664,14.494 117.274,14.494 C117.670002,14.494 117.999999,14.5856658 118.264,14.769 C118.528001,14.9523343 118.66,15.2639978 118.66,15.704 L118.66,21.666 C118.66,21.9740015 118.671,22.2489988 118.693,22.491 C118.715,22.7330012 118.762666,22.9273326 118.836,23.074 C118.953334,23.3673348 119.129332,23.5726661 119.364,23.69 C119.598668,23.8073339 119.884665,23.866 120.222,23.866 C120.588668,23.866 120.900332,23.8000007 121.157,23.668 C121.413668,23.5359993 121.629999,23.3746676 121.806,23.184 C121.982001,22.9933324 122.114,22.7916677 122.202,22.579 C122.29,22.3663323 122.356,22.1720009 122.4,21.996 C122.458667,21.7319987 122.491667,21.4386683 122.499,21.116 C122.506333,20.7933317 122.51,20.5146678 122.51,20.28 L122.51,15.77 C122.51,15.3153311 122.616332,14.989001 122.829,14.791 C123.041668,14.592999 123.404664,14.494 123.918,14.494 C124.328669,14.494 124.651332,14.5893324 124.886,14.78 C125.120668,14.9706676 125.238,15.2859978 125.238,15.726 L125.238,24.812 C125.238,25.208002 125.135334,25.5306654 124.93,25.78 C124.724666,26.0293346 124.372669,26.154 123.874,26.154 C123.536665,26.154 123.236001,26.0696675 122.972,25.901 C122.707999,25.7323325 122.576,25.3913359 122.576,24.878 L122.576,24.658 C122.326665,25.0833355 121.949003,25.4756649 121.443,25.835 C120.936997,26.1943351 120.280671,26.374 119.474,26.374 C118.197994,26.374 117.252003,25.9340044 116.636,25.054 C116.283998,24.5553308 116.075,23.9833366 116.009,23.338 C115.943,22.6926634 115.91,22.0986694 115.91,21.556 L115.91,15.704 Z M130.474,21.336 C129.989998,21.2479996 129.546335,21.1233341 129.143,20.962 C128.739665,20.8006659 128.395001,20.5880013 128.109,20.324 C127.822999,20.0599987 127.599334,19.7373352 127.438,19.356 C127.276666,18.9746648 127.196,18.5053361 127.196,17.948 C127.196,17.3613304 127.302332,16.8406689 127.515,16.386 C127.727668,15.9313311 128.024665,15.5463349 128.406,15.231 C128.787335,14.9156651 129.241997,14.6773341 129.77,14.516 C130.298003,14.3546659 130.884663,14.274 131.53,14.274 C132.454005,14.274 133.212997,14.3876655 133.807,14.615 C134.401003,14.8423345 134.837332,15.0879987 135.116,15.352 C135.438668,15.6600015 135.6,15.9753317 135.6,16.298 C135.6,16.6060015 135.512001,16.8773322 135.336,17.112 C135.159999,17.3466678 134.925335,17.464 134.632,17.464 C134.470666,17.464 134.316667,17.4383336 134.17,17.387 C134.023333,17.3356664 133.869334,17.2586672 133.708,17.156 C133.443999,16.9946659 133.132335,16.844334 132.773,16.705 C132.413665,16.565666 131.977336,16.496 131.464,16.496 C130.906664,16.496 130.499668,16.6023323 130.243,16.815 C129.986332,17.0276677 129.858,17.302665 129.858,17.64 C129.858,17.7720007 129.876333,17.9003327 129.913,18.025 C129.949667,18.1496673 130.019333,18.2669995 130.122,18.377 C130.224667,18.4870006 130.371332,18.5859996 130.562,18.674 C130.752668,18.7620004 130.994665,18.835333 131.288,18.894 L132.344,19.114 C132.93067,19.2460007 133.440331,19.4036658 133.873,19.587 C134.305669,19.7703343 134.657665,19.9976653 134.929,20.269 C135.200335,20.5403347 135.401999,20.8703314 135.534,21.259 C135.666001,21.6476686 135.732,22.1059974 135.732,22.634 C135.732,23.8806729 135.332337,24.8156636 134.533,25.439 C133.733663,26.0623365 132.63734,26.374 131.244,26.374 C130.451996,26.374 129.744336,26.2713344 129.121,26.066 C128.497664,25.8606656 127.988002,25.6040015 127.592,25.296 C127.430666,25.1639993 127.306,25.0100009 127.218,24.834 C127.13,24.6579991 127.086,24.4893341 127.086,24.328 C127.086,23.990665 127.188666,23.6753348 127.394,23.382 C127.599334,23.0886652 127.892665,22.942 128.274,22.942 C128.479334,22.942 128.673666,23.0079993 128.857,23.14 C129.040334,23.2720007 129.245666,23.4186659 129.473,23.58 C129.700334,23.7413341 129.967998,23.8879993 130.276,24.02 C130.584002,24.1520007 130.965331,24.218 131.42,24.218 C131.977336,24.218 132.391665,24.1006678 132.663,23.866 C132.934335,23.6313322 133.07,23.316002 133.07,22.92 C133.07,22.582665 132.974668,22.2966678 132.784,22.062 C132.593332,21.8273322 132.219336,21.6586672 131.662,21.556 L130.474,21.336 Z M137.668,15.814 C137.668,14.9339956 138.144662,14.494 139.098,14.494 C139.435335,14.494 139.739665,14.5856658 140.011,14.769 C140.282335,14.9523343 140.418,15.2566645 140.418,15.682 L140.418,24.922 C140.418,25.3620022 140.300668,25.6773324 140.066,25.868 C139.831332,26.0586676 139.501335,26.154 139.076,26.154 C138.137329,26.154 137.668,25.758004 137.668,24.966 L137.668,15.814 Z M137.536,11.678 C137.536,11.2086643 137.678999,10.8200015 137.965,10.512 C138.251001,10.2039985 138.621331,10.05 139.076,10.05 C139.457335,10.05 139.809332,10.1819987 140.132,10.446 C140.454668,10.7100013 140.616,11.1206639 140.616,11.678 C140.616,12.1766692 140.476668,12.5726652 140.198,12.866 C139.919332,13.1593348 139.545336,13.306 139.076,13.306 C138.606664,13.306 138.232668,13.1593348 137.954,12.866 C137.675332,12.5726652 137.536,12.1766692 137.536,11.678 Z M147.436,26.374 C146.511995,26.374 145.73467,26.2090017 145.104,25.879 C144.47333,25.5489984 143.960002,25.1126694 143.564,24.57 C143.167998,24.0273306 142.885668,23.4003369 142.717,22.689 C142.548332,21.9776631 142.464,21.2480037 142.464,20.5 C142.464,19.5173284 142.588665,18.6373372 142.838,17.86 C143.087335,17.0826628 143.442998,16.4300026 143.905,15.902 C144.367002,15.3739974 144.92433,14.9706681 145.577,14.692 C146.22967,14.4133319 146.966663,14.274 147.788,14.274 C148.46267,14.274 149.071331,14.3766656 149.614,14.582 C150.156669,14.7873344 150.611332,15.0439985 150.978,15.352 C151.344669,15.6600015 151.626999,15.982665 151.825,16.32 C152.023001,16.657335 152.122,16.9579987 152.122,17.222 C152.122,17.6033352 151.993668,17.9113322 151.737,18.146 C151.480332,18.3806678 151.161335,18.498 150.78,18.498 C150.530665,18.498 150.318001,18.4246674 150.142,18.278 C149.965999,18.1313326 149.797334,17.9700009 149.636,17.794 C149.371999,17.5006652 149.089668,17.2513344 148.789,17.046 C148.488332,16.8406656 148.096002,16.738 147.612,16.738 C147.083997,16.738 146.666002,16.8663321 146.358,17.123 C146.049998,17.379668 145.811668,17.6949981 145.643,18.069 C145.474332,18.4430019 145.368,18.8426645 145.324,19.268 C145.28,19.6933355 145.258,20.074665 145.258,20.412 C145.258,20.7933352 145.287333,21.1893313 145.346,21.6 C145.404667,22.0106687 145.521999,22.3883316 145.698,22.733 C145.874001,23.0776684 146.115998,23.3636655 146.424,23.591 C146.732002,23.8183345 147.127998,23.932 147.612,23.932 C148.169336,23.932 148.601998,23.8146678 148.91,23.58 C149.218002,23.3453322 149.474666,23.1253344 149.68,22.92 C149.870668,22.7293324 150.035666,22.5790006 150.175,22.469 C150.314334,22.3589995 150.501332,22.304 150.736,22.304 C151.029335,22.304 151.307999,22.4213322 151.572,22.656 C151.836001,22.8906678 151.968,23.176665 151.968,23.514 C151.968,23.8073348 151.861668,24.1189984 151.649,24.449 C151.436332,24.7790017 151.135669,25.0869986 150.747,25.373 C150.358331,25.6590014 149.885336,25.8973324 149.328,26.088 C148.770664,26.2786676 148.140004,26.374 147.436,26.374 Z" id="Wynk-Music-Copy" fill="#FFFFFF"></path>
                        </g>
                    </g>
                </g>
            </g>
        </g>
    </g>
</svg>